<mxfile host="app.diagrams.net" agent="Mozilla/5.0 (Windows NT 10.0; Win64; x64) AppleWebKit/537.36 (KHTML, like Gecko) Chrome/129.0.0.0 Safari/537.36 Edg/129.0.0.0" version="24.7.17">
  <diagram id="axB7szs_uBeu4hfYstc7" name="Página-1">
    <mxGraphModel dx="1419" dy="783" grid="1" gridSize="10" guides="1" tooltips="1" connect="1" arrows="1" fold="1" page="1" pageScale="1" pageWidth="827" pageHeight="1169" math="0" shadow="0">
      <root>
        <mxCell id="0" />
        <mxCell id="1" parent="0" />
        <mxCell id="F3HrLOQjKa00HK4MqhvZ-8" value="" style="ellipse;whiteSpace=wrap;html=1;" vertex="1" parent="1">
          <mxGeometry x="990" y="338" width="105" height="70" as="geometry" />
        </mxCell>
        <mxCell id="v1AuQ7H95rM6WsMichzJ-2" value="TELÉFONO" style="ellipse;whiteSpace=wrap;html=1;" parent="1" vertex="1">
          <mxGeometry x="57.5" y="547" width="112.5" height="75" as="geometry" />
        </mxCell>
        <mxCell id="SdneMGF3WSqkRSDgV3Lc-28" value="UBICACIÓN" style="ellipse;whiteSpace=wrap;html=1;dashed=1;" parent="1" vertex="1">
          <mxGeometry x="892.5" y="425" width="105" height="70" as="geometry" />
        </mxCell>
        <mxCell id="SdneMGF3WSqkRSDgV3Lc-23" value="AFICIONES" style="ellipse;whiteSpace=wrap;html=1;" parent="1" vertex="1">
          <mxGeometry x="212.5" y="575" width="105" height="70" as="geometry" />
        </mxCell>
        <mxCell id="EXCapHJ6gCYgwVX0uH0I-8" style="edgeStyle=orthogonalEdgeStyle;rounded=0;orthogonalLoop=1;jettySize=auto;html=1;endArrow=baseDash;endFill=0;" parent="1" source="EXCapHJ6gCYgwVX0uH0I-1" target="EXCapHJ6gCYgwVX0uH0I-5" edge="1">
          <mxGeometry relative="1" as="geometry" />
        </mxCell>
        <mxCell id="SdneMGF3WSqkRSDgV3Lc-26" value="&lt;span style=&quot;font-size: 12px; background-color: rgb(251, 251, 251);&quot;&gt;0:N&lt;/span&gt;" style="edgeLabel;html=1;align=center;verticalAlign=middle;resizable=0;points=[];" parent="EXCapHJ6gCYgwVX0uH0I-8" vertex="1" connectable="0">
          <mxGeometry x="-0.2773" relative="1" as="geometry">
            <mxPoint as="offset" />
          </mxGeometry>
        </mxCell>
        <mxCell id="EXCapHJ6gCYgwVX0uH0I-9" style="edgeStyle=orthogonalEdgeStyle;rounded=0;orthogonalLoop=1;jettySize=auto;html=1;entryX=0;entryY=0.5;entryDx=0;entryDy=0;endArrow=baseDash;endFill=0;" parent="1" source="EXCapHJ6gCYgwVX0uH0I-1" target="EXCapHJ6gCYgwVX0uH0I-7" edge="1">
          <mxGeometry relative="1" as="geometry" />
        </mxCell>
        <mxCell id="SdneMGF3WSqkRSDgV3Lc-27" value="&lt;span style=&quot;font-size: 12px; background-color: rgb(251, 251, 251);&quot;&gt;0:N&lt;/span&gt;" style="edgeLabel;html=1;align=center;verticalAlign=middle;resizable=0;points=[];" parent="EXCapHJ6gCYgwVX0uH0I-9" vertex="1" connectable="0">
          <mxGeometry x="-0.0338" y="-1" relative="1" as="geometry">
            <mxPoint as="offset" />
          </mxGeometry>
        </mxCell>
        <mxCell id="SdneMGF3WSqkRSDgV3Lc-25" style="edgeStyle=orthogonalEdgeStyle;rounded=0;orthogonalLoop=1;jettySize=auto;html=1;entryX=0.5;entryY=1;entryDx=0;entryDy=0;endArrow=baseDash;endFill=0;" parent="1" source="EXCapHJ6gCYgwVX0uH0I-1" target="SdneMGF3WSqkRSDgV3Lc-24" edge="1">
          <mxGeometry relative="1" as="geometry" />
        </mxCell>
        <mxCell id="EXCapHJ6gCYgwVX0uH0I-1" value="ENLAZAR" style="rhombus;whiteSpace=wrap;html=1;strokeWidth=2;" parent="1" vertex="1">
          <mxGeometry x="560" y="410" width="130" height="100" as="geometry" />
        </mxCell>
        <mxCell id="EXCapHJ6gCYgwVX0uH0I-4" value="&lt;h1 style=&quot;margin-top: 0px;&quot;&gt;&lt;span style=&quot;background-color: initial;&quot;&gt;DATOS&lt;/span&gt;&lt;/h1&gt;&lt;h1 style=&quot;margin-top: 0px;&quot;&gt;&lt;span style=&quot;font-size: 12px; font-weight: 400;&quot;&gt;PERSONAS: AFICIONES, DNI, NOMBRE, DIRECCION, TELEF, FOTO, EMAIL Y PASSWORD,&amp;nbsp;&lt;/span&gt;&lt;/h1&gt;&lt;div&gt;&lt;span style=&quot;font-size: 12px; font-weight: 400;&quot;&gt;CITAS: FECHA, UBICACIÓN (DESCRIPCION)&lt;/span&gt;&lt;/div&gt;&lt;div&gt;&lt;span style=&quot;font-size: 12px; font-weight: 400;&quot;&gt;&lt;br&gt;&lt;/span&gt;&lt;/div&gt;&lt;div&gt;&lt;span style=&quot;font-size: 12px; font-weight: 400;&quot;&gt;&lt;br&gt;&lt;/span&gt;&lt;/div&gt;&lt;div&gt;&lt;span style=&quot;font-size: 12px; font-weight: 400;&quot;&gt;&lt;br&gt;&lt;/span&gt;&lt;/div&gt;&lt;div&gt;&lt;span style=&quot;font-size: 12px; font-weight: 400;&quot;&gt;&lt;br&gt;&lt;/span&gt;&lt;/div&gt;&lt;div&gt;&lt;span style=&quot;font-size: 12px; font-weight: 400;&quot;&gt;&lt;br&gt;&lt;/span&gt;&lt;/div&gt;&lt;div&gt;&lt;span style=&quot;font-size: 12px; font-weight: 400;&quot;&gt;&lt;br&gt;&lt;/span&gt;&lt;/div&gt;&lt;div&gt;&lt;br&gt;&lt;/div&gt;" style="text;html=1;whiteSpace=wrap;overflow=hidden;rounded=0;" parent="1" vertex="1">
          <mxGeometry x="44" y="80" width="370" height="160" as="geometry" />
        </mxCell>
        <mxCell id="EXCapHJ6gCYgwVX0uH0I-5" value="PERSONAS" style="rounded=0;whiteSpace=wrap;html=1;strokeWidth=2;" parent="1" vertex="1">
          <mxGeometry x="170" y="430" width="120" height="60" as="geometry" />
        </mxCell>
        <mxCell id="EXCapHJ6gCYgwVX0uH0I-7" value="CITAS" style="rounded=0;whiteSpace=wrap;html=1;strokeWidth=2;" parent="1" vertex="1">
          <mxGeometry x="760" y="430" width="120" height="60" as="geometry" />
        </mxCell>
        <mxCell id="SdneMGF3WSqkRSDgV3Lc-2" value="TELÉFONO" style="ellipse;whiteSpace=wrap;html=1;" parent="1" vertex="1">
          <mxGeometry x="70" y="554.5" width="90" height="60" as="geometry" />
        </mxCell>
        <mxCell id="SdneMGF3WSqkRSDgV3Lc-12" style="edgeStyle=orthogonalEdgeStyle;rounded=0;orthogonalLoop=1;jettySize=auto;html=1;entryX=0;entryY=0.5;entryDx=0;entryDy=0;endArrow=baseDash;endFill=0;" parent="1" source="SdneMGF3WSqkRSDgV3Lc-3" target="EXCapHJ6gCYgwVX0uH0I-5" edge="1">
          <mxGeometry relative="1" as="geometry" />
        </mxCell>
        <mxCell id="SdneMGF3WSqkRSDgV3Lc-3" value="DIRECCIÓN" style="ellipse;whiteSpace=wrap;html=1;dashed=1;" parent="1" vertex="1">
          <mxGeometry x="40" y="480" width="90" height="60" as="geometry" />
        </mxCell>
        <mxCell id="SdneMGF3WSqkRSDgV3Lc-4" value="NOMBRE" style="ellipse;whiteSpace=wrap;html=1;" parent="1" vertex="1">
          <mxGeometry x="40" y="403" width="90" height="60" as="geometry" />
        </mxCell>
        <mxCell id="SdneMGF3WSqkRSDgV3Lc-10" style="edgeStyle=orthogonalEdgeStyle;rounded=0;orthogonalLoop=1;jettySize=auto;html=1;entryX=0.5;entryY=0;entryDx=0;entryDy=0;endArrow=baseDash;endFill=0;" parent="1" source="SdneMGF3WSqkRSDgV3Lc-5" target="EXCapHJ6gCYgwVX0uH0I-5" edge="1">
          <mxGeometry relative="1" as="geometry" />
        </mxCell>
        <mxCell id="SdneMGF3WSqkRSDgV3Lc-5" value="&lt;u&gt;DNI&lt;/u&gt;" style="ellipse;whiteSpace=wrap;html=1;" parent="1" vertex="1">
          <mxGeometry x="50" y="330" width="90" height="60" as="geometry" />
        </mxCell>
        <mxCell id="SdneMGF3WSqkRSDgV3Lc-8" value="FOTO" style="ellipse;whiteSpace=wrap;html=1;" parent="1" vertex="1">
          <mxGeometry x="100" y="260" width="90" height="60" as="geometry" />
        </mxCell>
        <mxCell id="SdneMGF3WSqkRSDgV3Lc-9" style="edgeStyle=orthogonalEdgeStyle;rounded=0;orthogonalLoop=1;jettySize=auto;html=1;entryX=0.68;entryY=-0.007;entryDx=0;entryDy=0;entryPerimeter=0;endArrow=baseDash;endFill=0;" parent="1" source="SdneMGF3WSqkRSDgV3Lc-8" target="EXCapHJ6gCYgwVX0uH0I-5" edge="1">
          <mxGeometry relative="1" as="geometry">
            <Array as="points">
              <mxPoint x="252" y="290" />
            </Array>
          </mxGeometry>
        </mxCell>
        <mxCell id="SdneMGF3WSqkRSDgV3Lc-11" style="edgeStyle=orthogonalEdgeStyle;rounded=0;orthogonalLoop=1;jettySize=auto;html=1;endArrow=baseDash;endFill=0;" parent="1" source="SdneMGF3WSqkRSDgV3Lc-4" edge="1">
          <mxGeometry relative="1" as="geometry">
            <mxPoint x="187" y="430" as="targetPoint" />
            <Array as="points">
              <mxPoint x="187" y="410" />
            </Array>
          </mxGeometry>
        </mxCell>
        <mxCell id="SdneMGF3WSqkRSDgV3Lc-13" style="edgeStyle=orthogonalEdgeStyle;rounded=0;orthogonalLoop=1;jettySize=auto;html=1;entryX=0.286;entryY=0.997;entryDx=0;entryDy=0;entryPerimeter=0;endArrow=baseDash;endFill=0;" parent="1" source="SdneMGF3WSqkRSDgV3Lc-2" target="EXCapHJ6gCYgwVX0uH0I-5" edge="1">
          <mxGeometry relative="1" as="geometry" />
        </mxCell>
        <mxCell id="SdneMGF3WSqkRSDgV3Lc-14" value="FECHA" style="ellipse;whiteSpace=wrap;html=1;" parent="1" vertex="1">
          <mxGeometry x="740" y="340" width="90" height="60" as="geometry" />
        </mxCell>
        <mxCell id="SdneMGF3WSqkRSDgV3Lc-19" style="edgeStyle=orthogonalEdgeStyle;rounded=0;orthogonalLoop=1;jettySize=auto;html=1;entryX=1;entryY=0.5;entryDx=0;entryDy=0;endArrow=baseDash;endFill=0;exitX=0;exitY=0.5;exitDx=0;exitDy=0;" parent="1" target="EXCapHJ6gCYgwVX0uH0I-7" edge="1" source="SdneMGF3WSqkRSDgV3Lc-28">
          <mxGeometry relative="1" as="geometry">
            <mxPoint x="900" y="460" as="sourcePoint" />
          </mxGeometry>
        </mxCell>
        <mxCell id="SdneMGF3WSqkRSDgV3Lc-17" style="edgeStyle=orthogonalEdgeStyle;rounded=0;orthogonalLoop=1;jettySize=auto;html=1;endArrow=baseDash;endFill=0;" parent="1" source="SdneMGF3WSqkRSDgV3Lc-14" edge="1">
          <mxGeometry relative="1" as="geometry">
            <mxPoint x="825" y="430" as="targetPoint" />
          </mxGeometry>
        </mxCell>
        <mxCell id="SdneMGF3WSqkRSDgV3Lc-18" style="edgeStyle=orthogonalEdgeStyle;rounded=0;orthogonalLoop=1;jettySize=auto;html=1;entryX=0.543;entryY=1.007;entryDx=0;entryDy=0;entryPerimeter=0;endArrow=baseDash;endFill=0;" parent="1" target="EXCapHJ6gCYgwVX0uH0I-7" edge="1">
          <mxGeometry relative="1" as="geometry">
            <mxPoint x="825" y="520" as="sourcePoint" />
          </mxGeometry>
        </mxCell>
        <mxCell id="SdneMGF3WSqkRSDgV3Lc-32" value="1:1" style="edgeLabel;html=1;align=center;verticalAlign=middle;resizable=0;points=[];" parent="SdneMGF3WSqkRSDgV3Lc-18" vertex="1" connectable="0">
          <mxGeometry x="0.0892" y="-1" relative="1" as="geometry">
            <mxPoint as="offset" />
          </mxGeometry>
        </mxCell>
        <mxCell id="SdneMGF3WSqkRSDgV3Lc-20" value="AFICIONES" style="ellipse;whiteSpace=wrap;html=1;" parent="1" vertex="1">
          <mxGeometry x="220" y="580" width="90" height="60" as="geometry" />
        </mxCell>
        <mxCell id="SdneMGF3WSqkRSDgV3Lc-22" style="edgeStyle=orthogonalEdgeStyle;rounded=0;orthogonalLoop=1;jettySize=auto;html=1;entryX=0.792;entryY=1;entryDx=0;entryDy=0;entryPerimeter=0;endArrow=baseDash;endFill=0;" parent="1" source="SdneMGF3WSqkRSDgV3Lc-20" target="EXCapHJ6gCYgwVX0uH0I-5" edge="1">
          <mxGeometry relative="1" as="geometry" />
        </mxCell>
        <mxCell id="SdneMGF3WSqkRSDgV3Lc-24" value="CADA 24H" style="ellipse;whiteSpace=wrap;html=1;" parent="1" vertex="1">
          <mxGeometry x="580" y="310" width="90" height="60" as="geometry" />
        </mxCell>
        <mxCell id="SdneMGF3WSqkRSDgV3Lc-29" value="ME GUSTA" style="rounded=0;whiteSpace=wrap;html=1;" parent="1" vertex="1">
          <mxGeometry x="765" y="630" width="120" height="60" as="geometry" />
        </mxCell>
        <mxCell id="SdneMGF3WSqkRSDgV3Lc-31" style="edgeStyle=orthogonalEdgeStyle;rounded=0;orthogonalLoop=1;jettySize=auto;html=1;entryX=0.5;entryY=0;entryDx=0;entryDy=0;endArrow=baseDash;endFill=0;" parent="1" source="SdneMGF3WSqkRSDgV3Lc-30" target="SdneMGF3WSqkRSDgV3Lc-29" edge="1">
          <mxGeometry relative="1" as="geometry" />
        </mxCell>
        <mxCell id="SdneMGF3WSqkRSDgV3Lc-33" value="0:1" style="edgeLabel;html=1;align=center;verticalAlign=middle;resizable=0;points=[];" parent="SdneMGF3WSqkRSDgV3Lc-31" vertex="1" connectable="0">
          <mxGeometry x="-0.5209" y="-1" relative="1" as="geometry">
            <mxPoint as="offset" />
          </mxGeometry>
        </mxCell>
        <mxCell id="SdneMGF3WSqkRSDgV3Lc-30" value="REALIZAR" style="rhombus;whiteSpace=wrap;html=1;" parent="1" vertex="1">
          <mxGeometry x="785" y="520" width="80" height="80" as="geometry" />
        </mxCell>
        <mxCell id="F3HrLOQjKa00HK4MqhvZ-4" value="NOMBRE" style="ellipse;whiteSpace=wrap;html=1;" vertex="1" parent="1">
          <mxGeometry x="840" y="330" width="90" height="60" as="geometry" />
        </mxCell>
        <mxCell id="F3HrLOQjKa00HK4MqhvZ-5" style="edgeStyle=orthogonalEdgeStyle;rounded=0;orthogonalLoop=1;jettySize=auto;html=1;entryX=0.854;entryY=-0.007;entryDx=0;entryDy=0;entryPerimeter=0;endArrow=baseDash;endFill=0;" edge="1" parent="1" source="F3HrLOQjKa00HK4MqhvZ-4" target="EXCapHJ6gCYgwVX0uH0I-7">
          <mxGeometry relative="1" as="geometry" />
        </mxCell>
        <mxCell id="F3HrLOQjKa00HK4MqhvZ-6" value="DESCRIPCIÓN" style="ellipse;whiteSpace=wrap;html=1;" vertex="1" parent="1">
          <mxGeometry x="1030" y="470" width="90" height="60" as="geometry" />
        </mxCell>
        <mxCell id="F3HrLOQjKa00HK4MqhvZ-7" value="UBICACIONES" style="ellipse;whiteSpace=wrap;html=1;" vertex="1" parent="1">
          <mxGeometry x="997.5" y="343" width="90" height="60" as="geometry" />
        </mxCell>
        <mxCell id="F3HrLOQjKa00HK4MqhvZ-9" value="" style="endArrow=none;html=1;rounded=0;exitX=0.5;exitY=0;exitDx=0;exitDy=0;entryX=0.031;entryY=0.647;entryDx=0;entryDy=0;entryPerimeter=0;" edge="1" parent="1" source="SdneMGF3WSqkRSDgV3Lc-28" target="F3HrLOQjKa00HK4MqhvZ-8">
          <mxGeometry width="50" height="50" relative="1" as="geometry">
            <mxPoint x="940" y="440" as="sourcePoint" />
            <mxPoint x="960" y="370" as="targetPoint" />
          </mxGeometry>
        </mxCell>
        <mxCell id="F3HrLOQjKa00HK4MqhvZ-10" value="" style="endArrow=none;html=1;rounded=0;entryX=0;entryY=0.5;entryDx=0;entryDy=0;exitX=1.003;exitY=0.58;exitDx=0;exitDy=0;exitPerimeter=0;" edge="1" parent="1" source="SdneMGF3WSqkRSDgV3Lc-28" target="F3HrLOQjKa00HK4MqhvZ-6">
          <mxGeometry width="50" height="50" relative="1" as="geometry">
            <mxPoint x="940" y="440" as="sourcePoint" />
            <mxPoint x="990" y="390" as="targetPoint" />
          </mxGeometry>
        </mxCell>
      </root>
    </mxGraphModel>
  </diagram>
</mxfile>
